<?xml version="1.0" encoding="UTF-8" standalone="no"?>
<!-- Created with Inkscape (http://www.inkscape.org/) -->

<svg
   xmlns:dc="http://purl.org/dc/elements/1.1/"
   xmlns:cc="http://creativecommons.org/ns#"
   xmlns:rdf="http://www.w3.org/1999/02/22-rdf-syntax-ns#"
   xmlns:svg="http://www.w3.org/2000/svg"
   xmlns="http://www.w3.org/2000/svg"
   xmlns:sodipodi="http://sodipodi.sourceforge.net/DTD/sodipodi-0.dtd"
   xmlns:inkscape="http://www.inkscape.org/namespaces/inkscape"
   width="744.09448819"
   height="1052.3622047"
   id="svg4041"
   version="1.1"
   inkscape:version="0.48.5 r10040"
   sodipodi:docname="New document 8">
  <defs
     id="defs4043" />
  <sodipodi:namedview
     id="base"
     pagecolor="#ffffff"
     bordercolor="#666666"
     borderopacity="1.0"
     inkscape:pageopacity="0.0"
     inkscape:pageshadow="2"
     inkscape:zoom="0.49497475"
     inkscape:cx="322.93891"
     inkscape:cy="473.08453"
     inkscape:document-units="px"
     inkscape:current-layer="layer1"
     showgrid="false"
     inkscape:window-width="1920"
     inkscape:window-height="1137"
     inkscape:window-x="-8"
     inkscape:window-y="-8"
     inkscape:window-maximized="1" />
  <metadata
     id="metadata4046">
    <rdf:RDF>
      <cc:Work
         rdf:about="">
        <dc:format>image/svg+xml</dc:format>
        <dc:type
           rdf:resource="http://purl.org/dc/dcmitype/StillImage" />
        <dc:title></dc:title>
      </cc:Work>
    </rdf:RDF>
  </metadata>
  <g
     inkscape:label="Layer 1"
     inkscape:groupmode="layer"
     id="layer1">
    <path
       style="fill:#000000;stroke:#ff0000;stroke-width:3.20194697;stroke-miterlimit:4;stroke-opacity:1;stroke-dasharray:none"
       d="m 162.09701,748.6828 c -9.43089,-4.39142 -11.55872,-9.42459 -9.70736,-22.96101 0.76296,-5.5788 2.88011,-16.13246 4.70476,-23.45254 5.12214,-20.5493 5.27945,-22.38651 2.00526,-23.4257 -1.91322,-0.60724 -2.63842,-1.71564 -2.36728,-3.61848 0.36595,-2.56883 1.17603,-2.76617 12.74936,-3.10591 11.33782,-0.33284 12.35858,-0.16802 12.35858,1.99725 0,1.29804 -1.3772,3.65379 -3.06035,5.23503 -3.18993,2.99683 -4.28017,6.46227 -10.89368,34.63065 -4.50169,19.17354 -4.59208,21.15152 -1.16451,25.50882 2.17298,2.76258 3.65775,3.33982 8.59066,3.33982 6.51343,0 10.06736,-1.89544 14.05542,-7.49626 2.6649,-3.74241 3.26685,-5.84748 10.32874,-36.12199 l 4.11332,-17.63359 -3.42822,-2.73355 c -2.30199,-1.83555 -3.15946,-3.43395 -2.61013,-4.86536 0.68614,-1.788 2.73816,-2.13181 12.72411,-2.13181 11.01473,0 11.90608,0.18742 11.90608,2.50587 0,1.37825 -1.42282,3.43805 -3.16164,4.57749 -3.6523,2.39302 -6.0984,9.56355 -9.04227,26.5066 -3.37005,19.39595 -7.62545,30.92987 -13.62714,36.93541 -9.08881,9.09461 -23.01748,11.6438 -34.47371,6.30926 z m 524.5853,1.62056 c -7.16709,-1.69952 -13.86631,-9.40648 -15.05249,-17.31658 -3.00574,-20.04355 6.63308,-45.17702 21.12478,-55.08368 10.92562,-7.46875 27.04688,-8.67809 35.13968,-2.63599 7.31502,5.46147 8.49715,8.48145 8.49715,21.70804 0,14.27979 -3.04266,25.16788 -10.12825,36.24459 -8.74479,13.67017 -24.78328,20.59264 -39.58087,17.08362 z m 20.66507,-13.0863 c 9.60799,-10.02749 15.73479,-26.3942 15.73479,-42.03266 0,-8.13618 -1.77481,-12.44255 -5.90334,-14.32364 -4.39862,-2.00411 -7.47309,-1.75489 -12.8434,1.04115 -7.97858,4.15394 -14.8019,17.49915 -18.64511,36.46608 -3.36875,16.62517 0.24307,24.46274 11.27266,24.46274 4.26581,0 5.80042,-0.82959 10.3844,-5.61367 z m -696.144032,11.3783 c -0.880326,-2.29393 0.397495,-4.49708 2.608216,-4.49708 2.836147,0 3.80454,-3.35429 15.524644,-53.77127 2.025397,-8.71328 2.02008,-8.78906 -0.781674,-11.05778 -1.55163,-1.25641 -2.621931,-3.29752 -2.378562,-4.53583 0.400546,-2.03818 2.24203,-2.24956 19.438191,-2.23123 20.901305,0.0218 24.635263,1.08761 30.253526,8.63201 5.934004,7.96822 1.347149,24.46589 -8.284677,29.79776 -7.913037,4.38044 -7.789711,4.12819 -5.07579,10.37571 1.356665,3.12332 2.874942,8.24554 3.373723,11.38269 1.181833,7.43162 2.61874,10.00198 6.393755,11.43723 3.499168,1.33042 4.098214,4.38343 1.086803,5.53904 -3.632666,1.39398 -15.389426,0.8203 -16.70308,-0.81503 -0.699946,-0.87146 -2.546126,-7.28839 -4.102546,-14.25989 -1.55642,-6.97151 -3.708708,-13.67367 -4.782838,-14.8937 -2.188293,-2.48545 -9.784928,-3.0246 -11.164549,-0.79238 -0.484707,0.7842 -1.932121,6.06037 -3.216638,11.7248 l -2.335444,10.29901 3.324762,2.72857 c 2.115664,1.73629 3.04224,3.46491 2.547907,4.7533 -1.090992,2.8431 -24.640718,3.01162 -25.725729,0.18402 z m 47.197299,-43.87065 c 7.044893,-6.49738 8.715,-15.89163 3.71415,-20.89247 -2.471327,-2.4714 -4.411073,-3.11125 -9.431779,-3.11125 -3.47625,0 -6.677807,0.57825 -7.114623,1.28498 -2.134419,3.45356 -6.320861,21.97115 -5.833503,25.80272 0.07734,0.60664 3.554847,0.856 7.728239,0.55414 5.790895,-0.41887 8.381146,-1.28047 10.937392,-3.63812 z m 28.88064,44.23845 c -0.830989,-1.3445 2.806967,-5.31839 5.812478,-6.34939 1.430798,-0.49077 6.308426,-19.12162 6.33659,-24.20413 0.02179,-4.21497 -7.146181,-30.58069 -9.628309,-35.40744 -0.968007,-1.88251 -2.758268,-3.99103 -3.978282,-4.68562 -1.763577,-1.00393 -1.930091,-1.73145 -0.812509,-3.54874 1.18274,-1.9234 3.175936,-2.28588 12.569738,-2.28588 12.136117,0 14.074317,1.1461 9.362327,5.53605 -2.33091,2.17151 -2.65854,3.47689 -2.01678,8.03492 1.11493,7.91933 4.56774,18.75141 5.97712,18.75141 2.21374,0 17.69975,-20.76437 17.69975,-23.73265 0,-1.58717 -0.6101,-2.88578 -1.35577,-2.88578 -0.74556,0 -1.17338,-1.2834 -0.95068,-2.85199 0.38014,-2.67676 1.08771,-2.87452 11.5168,-3.21853 9.42306,-0.31083 11.23517,-0.0452 11.9237,1.74922 0.57305,1.49331 -0.77739,3.43588 -4.59003,6.60294 -2.97113,2.46795 -11.26381,11.83254 -18.42823,20.81022 -13.39416,16.7841 -15.52821,21.09841 -17.87518,36.13738 -0.77399,4.95929 -0.58839,5.45283 2.4901,6.62324 3.66319,1.39279 4.10239,2.57928 1.80524,4.87653 -2.04327,2.04322 -24.599137,2.08533 -25.858073,0.048 z m 140.805693,0.27625 c -5.03963,-2.04455 -10.54488,-9.1197 -12.08217,-15.52782 -2.57459,-10.73246 0.88136,-27.42186 8.53709,-41.22623 5.07462,-9.15026 9.71044,-13.43688 19.40816,-17.94616 8.43301,-3.92121 22.8953,-4.39084 30.84319,-1.00151 4.57228,1.94977 4.80653,2.31581 3.97515,6.21211 -2.88823,13.53571 -7.84078,16.38423 -11.92407,6.85829 -3.34391,-7.80096 -7.8688,-9.05537 -17.19032,-4.76543 -12.5619,5.78111 -24.96559,41.2495 -19.22563,54.97545 2.47058,5.9077 6.76084,7.83326 13.44384,6.0337 6.18336,-1.66498 8.72619,-4.63811 10.84882,-12.68469 1.95555,-7.41312 1.51496,-9.70251 -2.0874,-10.84587 -1.43714,-0.45613 -2.31948,-1.68252 -2.08663,-2.90024 0.33615,-1.75765 2.39252,-2.1712 12.31711,-2.47705 6.55244,-0.20214 12.43969,0.15903 13.08271,0.80207 0.71388,0.71393 -0.20258,2.44137 -2.35408,4.43626 -2.80494,2.60084 -4.19725,6.05567 -6.82801,16.94355 -3.15023,13.03781 -3.46775,13.6956 -6.79862,14.085 -1.9216,0.22475 -4.24563,-0.2154 -5.16448,-0.97787 -1.16765,-0.96913 -2.69542,-0.99669 -5.07601,-0.0916 -4.0066,1.52331 -17.96949,1.58656 -21.63865,0.0983 z m 49.21765,-0.86087 c -0.54148,-1.41105 0.27999,-2.90407 2.47895,-4.506 2.80496,-2.04323 3.87678,-4.95361 7.28496,-19.78121 2.19791,-9.56201 5.08842,-21.79098 6.42355,-27.17542 3.14782,-12.69598 3.10752,-16.70115 -0.1902,-18.89216 -1.75299,-1.16463 -2.33621,-2.47166 -1.7657,-3.95724 0.77449,-2.01689 3.31249,-2.21817 27.96839,-2.21817 l 27.11664,0 -0.0248,3.48572 c -0.0125,1.91719 -0.76041,6.33774 -1.65975,9.8235 -1.4887,5.76994 -1.99368,6.37302 -5.63599,6.73168 -4.13915,0.40757 -4.43071,-0.006 -5.6402,-7.99924 -0.35047,-2.31616 -1.35654,-2.5351 -11.64949,-2.5351 l -11.2661,0 -2.97628,11.21228 c -1.63707,6.16678 -2.65768,11.72815 -2.26804,12.35857 0.38965,0.63046 3.01268,1.1463 5.82905,1.1463 4.05513,0 5.85964,-0.79122 8.6728,-3.80263 3.40033,-3.64014 9.16474,-5.1392 10.63204,-2.76496 0.98959,1.60115 -3.91921,19.41115 -5.89457,21.38646 -2.43674,2.43677 -5.58582,0.88281 -7.11804,-3.51259 -1.16892,-3.35297 -1.82854,-3.701 -7.01549,-3.701 -4.17593,0 -6.032,0.6003 -6.85855,2.21821 -2.01528,3.94446 -6.72893,24.3711 -5.92427,25.6729 1.00288,1.62285 13.41584,1.63985 17.66542,0.0248 1.79129,-0.68106 5.09412,-3.84478 7.3396,-7.03053 3.50616,-4.97424 4.62423,-5.73918 7.91669,-5.41637 3.38384,0.33176 3.78502,0.79277 3.41781,3.9264 -0.22876,1.95278 -1.42358,6.51594 -2.65512,10.14036 l -2.239,6.58988 -25.57742,0.34322 c -22.88707,0.30699 -25.6626,0.12153 -26.38728,-1.76707 z m 63.54498,0.68053 c -0.46807,-0.75738 0.88843,-3.18157 3.01449,-5.38707 3.15253,-3.27016 4.325,-6.23162 6.35537,-16.05167 1.3693,-6.62291 4.38279,-19.66341 6.69679,-28.97888 l 4.20712,-16.93714 -2.91396,-2.35965 c -1.60281,-1.29781 -2.72065,-3.37277 -2.48438,-4.61108 0.35694,-1.87036 2.00285,-2.31492 9.72321,-2.62628 5.79485,-0.23372 9.96988,0.18657 11.09038,1.1165 0.98819,0.82019 2.68845,4.69639 3.77816,8.61381 5.7472,20.65982 12.67254,39.44501 14.54179,39.44501 1.22447,0 1.76358,-1.67124 4.29279,-13.30923 1.06059,-4.88006 2.8184,-12.86558 3.90634,-17.74566 l 1.97789,-8.87283 -3.4504,-2.76437 c -2.92815,-2.3461 -3.20054,-3.06539 -1.79963,-4.75332 1.24484,-1.50004 4.11456,-1.98887 11.67546,-1.98887 11.88527,0 13.68735,1.74162 7.64367,7.38731 -2.44279,2.28179 -4.1474,5.39516 -4.68534,8.55699 -1.89853,11.15863 -13.69357,59.58774 -14.8711,61.05911 -2.13404,2.6665 -8.30115,1.90749 -10.29917,-1.26759 -1.72058,-2.7343 -4.88933,-11.63065 -10.94833,-30.73798 -3.75066,-11.82824 -7.65885,-20.9145 -8.99564,-20.9145 -0.598,0 -1.39376,1.28341 -1.76847,2.85197 -3.34517,14.00695 -9.49886,41.06234 -9.50265,41.77961 0,0.49574 1.20922,2.0324 2.69313,3.41481 4.94509,4.60706 2.38808,6.45809 -8.9211,6.45809 -5.90551,0 -10.459,-0.57234 -10.95642,-1.37709 z m 110.11601,-0.66158 c -0.5164,-1.34588 0.51498,-3.05391 3.03514,-5.02623 3.04604,-2.38389 4.13143,-4.59719 5.37145,-10.95366 0.85486,-4.38138 3.78492,-17.27929 6.51126,-28.66202 2.7265,-11.38273 4.95713,-21.22205 4.95713,-21.86516 0,-1.58384 -7.18192,-1.48501 -10.21945,0.14074 -1.34627,0.72045 -3.56446,3.49912 -4.92962,6.17489 -2.45612,4.81448 -6.18601,6.94674 -9.75566,5.57699 -2.00453,-0.76919 -1.73857,-3.34259 1.57834,-15.28003 l 1.84895,-6.65462 31.01951,0 c 23.97427,0 31.01785,0.35985 31.01244,1.58442 0,0.87146 -0.53787,3.58083 -1.18645,6.02087 -0.64861,2.43998 -1.80827,6.86058 -2.57691,9.82346 -1.24537,4.8005 -1.80362,5.38706 -5.1271,5.38706 -3.91546,0 -4.56936,-1.16604 -5.33168,-9.50657 -0.32994,-3.60975 -0.63667,-3.80265 -6.04607,-3.80265 -6.83535,0 -6.39285,-0.98557 -13.45639,29.97287 -6.39541,28.03087 -6.58247,30.0889 -2.98126,32.80528 1.83538,1.3844 2.59683,2.92677 2.09296,4.23958 -1.16649,3.04007 -24.65085,3.06269 -25.81659,0.0248 z m 35.58432,0.55254 c -0.54722,-0.88529 0.90576,-3.06321 3.59375,-5.38705 4.0323,-3.4861 15.09912,-20.70672 32.73588,-50.93913 11.95687,-20.49594 12.3592,-20.94968 18.19698,-20.52126 5.07921,0.37275 5.18695,0.4812 6.03797,6.08347 0.47661,3.13716 1.54819,17.68226 2.38146,32.32241 1.55084,27.2473 2.30492,31.6309 5.89219,34.25402 1.20911,0.8841 1.72764,2.36399 1.25753,3.58905 -0.66876,1.74275 -2.88516,2.08462 -13.51521,2.08462 -11.61159,0 -12.71525,-0.20728 -12.71525,-2.38934 0,-1.31409 1.45363,-3.34167 3.23009,-4.50567 2.92751,-1.91818 3.19471,-2.79273 2.85197,-9.33552 l -0.3781,-7.21905 -11.07976,-0.36608 -11.07972,-0.3661 -2.50391,4.11756 c -4.20216,6.90975 -4.6022,11.25164 -1.26844,13.76625 1.82995,1.38039 2.58971,2.92232 2.08612,4.2344 -0.65442,1.70537 -2.8758,2.06355 -12.79853,2.06355 -7.81429,0 -12.32727,-0.51889 -12.92502,-1.48613 z m 49.14298,-43.51178 c -0.23433,-6.27432 -0.70133,-11.68457 -1.03738,-12.02272 -0.93975,-0.9457 -4.99171,4.81375 -9.88952,14.05715 -2.43987,4.60466 -4.04332,8.76495 -3.56329,9.24503 0.48012,0.48007 4.0327,0.70537 7.89466,0.50066 l 7.02181,-0.37219 -0.42628,-11.40793 z m 27.67851,42.61741 c 0,-1.30927 1.17781,-3.16304 2.61722,-4.11952 2.07241,-1.37698 4.04767,-7.54455 9.48795,-29.62502 3.77895,-15.33732 6.87909,-29.38505 6.88936,-31.21718 0.0124,-2.02912 -1.05888,-4.04667 -2.7384,-5.16181 -1.80827,-1.20065 -2.4764,-2.56249 -1.94112,-3.95723 0.68475,-1.78457 2.75894,-2.12656 12.89754,-2.12656 10.48514,0 12.08134,0.28214 12.08134,2.1365 0,1.17507 -1.22545,3.44108 -2.72342,5.03551 -1.92958,2.05396 -4.49928,10.0219 -8.81531,27.33393 -8.33332,33.42665 -8.54159,35.02695 -4.91271,37.7642 1.85035,1.39571 2.61696,2.93943 2.11235,4.25413 -0.65481,1.70663 -2.88139,2.06355 -12.8733,2.06355 -10.9748,0 -12.0815,-0.21789 -12.0815,-2.3805 z m 35.49127,0 c 0,-1.30927 1.19442,-3.17348 2.65412,-4.14273 2.58666,-1.71747 7.51475,-19.29283 14.58426,-52.01244 l 2.15572,-9.97686 -2.88597,-3.07186 c -5.18566,-5.51998 -2.91827,-7.00343 10.70444,-7.00343 11.11891,0 12.08134,0.19617 12.08134,2.46323 0,1.35475 -1.03304,3.20854 -2.29577,4.1195 -3.35735,2.42223 -4.1118,4.09548 -6.07318,13.46987 -2.13823,10.21948 -2.21477,12.90356 -0.36836,12.90356 3.7343,0 25.21542,-20.57019 25.21542,-24.14618 0,-0.59332 -0.91417,-1.59036 -2.03149,-2.21569 -1.11736,-0.62527 -1.82252,-2.22223 -1.56709,-3.54869 0.42135,-2.18765 1.69838,-2.41184 13.73893,-2.41184 11.47811,0 13.33064,0.29117 13.68901,2.15156 0.27281,1.41767 -1.2345,3.03303 -4.41906,4.73561 -2.65842,1.42123 -10.81356,8.24342 -18.12262,15.16048 l -13.28919,12.57642 1.69356,4.87002 c 5.47541,15.74459 10.87844,26.70834 15.02499,30.48873 6.97316,6.35746 5.27158,7.97124 -8.40499,7.97124 -6.25505,0 -11.71554,-0.5543 -12.13421,-1.23177 -0.41865,-0.67743 0.1695,-2.6523 1.30724,-4.38859 1.98459,-3.02882 1.85502,-3.63412 -3.19259,-14.92942 -7.01178,-15.69069 -6.94042,-15.57526 -9.64426,-15.57526 -1.88986,0 -2.92647,2.13956 -5.21984,10.77411 -3.62912,13.6639 -3.65675,16.94696 -0.16244,19.2671 1.80827,1.20067 2.47636,2.56251 1.94109,3.95725 -0.68486,1.78458 -2.75896,2.12658 -12.89752,2.12658 -10.97478,0 -12.0815,-0.21789 -12.0815,-2.3805 z M 481.29899,634.72358 c -1.41182,-1.54159 -3.76739,-5.19524 -5.2347,-8.11914 l -2.66779,-5.31621 2.43529,-11.79563 c 1.33946,-6.48764 4.79969,-22.63318 7.68973,-35.87904 2.88986,-13.24586 6.32289,-29.78735 7.62885,-36.75884 1.30595,-6.9715 4.90894,-23.79816 8.0067,-37.39259 8.36377,-36.70444 13.92853,-65.5351 13.07752,-67.75298 -0.65826,-1.71536 -5.93709,-1.96202 -41.98796,-1.96202 -32.16105,0 -41.22742,-0.34865 -41.20093,-1.58441 0.0191,-0.87145 6.79555,-8.5718 15.05972,-17.11191 l 15.02561,-15.52742 93.6323,-0.28464 c 89.16865,-0.27096 108.22775,-0.11918 109.21718,0.87014 0.23996,0.23994 -0.7657,2.79282 -2.23507,5.67289 -2.87417,5.63387 -2.54675,7.68463 1.22701,7.68463 1.31202,0 2.72409,0.54772 3.13782,1.21717 0.84722,1.37083 -6.49152,16.65377 -8.6883,18.09352 -0.78155,0.51221 -11.11764,1.01165 -22.9693,1.10991 -11.85157,0.0984 -29.76946,0.53481 -39.81766,0.97009 l -18.26941,0.79138 -2.25252,8.87282 c -5.61728,22.12673 -35.39179,142.99235 -37.39401,151.7964 l -2.23596,9.83138 -10.22363,7.70842 c -16.86456,12.71561 -34.17494,25.3591 -36.35029,26.55024 -1.46046,0.79978 -2.7753,0.31947 -4.6102,-1.68411 z M 258.10436,522.44109 c 0.23217,-0.60741 75.42948,-76.51148 167.10473,-168.6757 l 166.68211,-167.57128 16.94935,-8.20389 c 9.32207,-4.5121 17.2848,-7.86839 17.69483,-7.45831 0.41006,0.41007 -2.79659,7.85667 -7.12577,16.54799 -6.97646,14.00572 -9.06586,19.5792 -7.33998,19.5792 0.2924,0 4.05542,-0.90281 8.36252,-2.00625 7.71895,-1.97748 7.87476,-1.96524 10.87656,0.85472 1.67492,1.57353 3.04527,3.5602 3.04527,4.4148 0,1.32508 -35.80779,35.31979 -89.36198,84.83701 -7.66863,7.09062 -19.07653,17.68374 -25.35087,23.54031 -6.27422,5.85658 -14.25992,13.22167 -17.74568,16.36691 -3.48576,3.1452 -8.33397,7.74265 -10.77415,10.21656 -4.924,4.9925 -18.44861,17.47364 -33.58425,30.99327 -5.46334,4.88006 -12.26283,11.23132 -15.10985,14.11397 -5.10848,5.17233 -22.85944,21.58124 -62.20544,57.50237 -26.46674,24.16292 -33.04838,30.23336 -48.17727,44.43571 -6.97149,6.54446 -15.20444,14.19662 -18.29537,17.00475 -3.09089,2.80811 -7.86537,7.24465 -10.61012,9.85898 -2.7446,2.61427 -5.71346,4.75327 -6.59756,4.75327 -0.88411,0 -1.98752,-2.02636 -2.45219,-4.50304 -0.46473,-2.47663 -1.53009,-4.76595 -2.36756,-5.08733 -0.83748,-0.32136 -8.33701,1.70499 -16.66566,4.50301 -15.97338,5.36635 -17.62994,5.75559 -16.95167,3.98297 z M 116.43446,365.32036 c -1.37871,-0.95895 -8.53843,-17.50896 -8.52679,-19.70964 0,-0.78261 1.48494,-4.56012 3.29055,-8.39443 19.42628,-41.25258 30.08065,-65.21639 30.08065,-67.65739 0,-0.89222 -2.7094,-2.28488 -6.02086,-3.09484 -3.31147,-0.80993 -13.43597,-3.39433 -22.49891,-5.74313 -9.06297,-2.34875 -18.046665,-4.6469 -19.963852,-5.10696 -2.819651,-0.67658 -3.485773,-1.54647 -3.485773,-4.55194 0,-2.21551 0.892238,-4.21485 2.210233,-4.95243 2.039996,-1.14165 1.977007,-1.48512 -0.818316,-4.4606 l -3.028557,-3.22373 3.036542,-1.09129 c 8.938214,-3.21242 31.191233,-11.11966 52.844613,-18.7774 13.45142,-4.75715 24.9444,-8.95238 25.54001,-9.32278 1.69623,-1.05478 21.47195,-42.34876 20.80092,-43.43461 -0.32941,-0.53299 -17.10677,-0.96911 -37.28295,-0.96911 -20.17628,0 -36.68402,-0.48955 -36.68402,-1.08787 0,-0.59836 5.84653,-3.10399 12.99234,-5.56805 7.1458,-2.46405 17.98316,-6.22203 24.0831,-8.35097 10.42278,-3.63774 13.17145,-3.99569 45.63165,-5.94198 18.99747,-1.13912 41.38563,-2.32352 49.75142,-2.63203 8.36581,-0.30853 21.7701,-1.10817 29.78732,-1.77703 31.54238,-2.63142 76.9963,-4.07515 83.61454,-2.65578 9.94911,2.13364 18.10397,6.85562 22.29955,12.91198 3.36674,4.86012 3.71645,6.31534 3.60326,14.9954 -0.29674,22.73923 -17.97592,51.16436 -38.19509,61.41014 -20.6649,10.47172 -27.97647,11.85584 -88.4341,16.74117 -28.98016,2.34173 -34.85751,3.09597 -34.85751,4.47318 0,1.39905 3.29665,3.09382 18.37938,9.4484 6.9715,2.93723 18.37942,7.89827 25.35093,11.02459 6.9715,3.12629 20.94618,9.25155 31.05488,13.6117 31.60435,13.63186 81.184,35.24902 95.3828,41.58784 4.0086,1.78955 7.2884,3.73824 7.2884,4.33034 0,0.59215 -1.42599,3.89068 -3.16885,7.33007 -1.74289,3.43941 -3.16889,6.84809 -3.16889,7.57487 0,0.72677 2.85438,3.07776 6.34321,5.22444 3.48876,2.14665 6.01233,4.43849 5.60785,5.09295 -1.70017,2.75078 -18.91599,13.7964 -21.50326,13.7964 -2.51457,0 -10.47667,-3.06017 -21.50266,-8.26439 -4.09987,-1.93508 -40.10537,-17.06963 -57.67334,-24.24232 -5.92578,-2.4194 -14.4817,-6.0346 -19.01319,-8.03374 -4.53144,-1.99913 -17.36535,-7.46586 -28.51975,-12.14826 -11.15443,-4.68241 -29.34407,-12.47399 -40.42157,-17.31467 -28.86794,-12.61489 -26.11446,-12.87518 -38.56491,3.64564 -22.65752,30.06452 -25.11542,33.11669 -29.53727,36.67916 -2.52163,2.03166 -9.59921,7.97183 -15.72794,13.2005 -6.12871,5.22863 -12.94495,11.03069 -15.14719,12.8935 -2.2022,1.86283 -4.55502,3.00364 -5.2286,2.5351 z M 266.23683,209.9241 c 12.60623,-0.8987 23.8571,-2.1582 25.00193,-2.79887 1.14494,-0.6407 8.7433,-7.42462 16.88524,-15.0754 8.14196,-7.65076 15.86626,-14.66256 17.16497,-15.58165 1.29885,-0.91917 2.03301,-2.20253 1.63172,-2.85201 -0.4288,-0.69379 -19.45366,-1.18079 -46.13056,-1.18079 l -45.4007,0 -2.76551,6.42862 c -3.57131,8.30162 -11.4897,31.04418 -11.4897,32.99962 0,1.11878 2.85823,1.27363 11.09105,0.60084 6.10008,-0.49855 21.40527,-1.64165 34.01156,-2.54036 z"
       id="path2996-7"
       inkscape:connector-curvature="0"
       inkscape:export-filename="E:\Nolan Site\ryugen taiko logo.png"
       inkscape:export-xdpi="90"
       inkscape:export-ydpi="90" />
  </g>
</svg>
